# xmcd
#
# Track frame offsets:
#	150
#	17989
#	36586
#	54871
#	72056
#	92963
#	111592
#	128819
#	146034
#	166451
#	188814
#	204532
#	221756
#	241373
#
# Disc length: 3445 seconds
#
# Revision: 1
# Processed by: cddbd v1.5.2PL0 Copyright (c) Steve Scherf et al.
# Submitted via: EasyCDDAExtractor 16.1.0.1
#
DISCID=d80d730e
DTITLE=Dэmo - До Свидания, Лето
DYEAR=2002
DGENRE=
TTITLE0=До Свиданья, Лето
TTITLE1=До Утра
TTITLE2=Не Ругай Меня
TTITLE3=Ты И Я
TTITLE4=Желание
TTITLE5=Не Уходи
TTITLE6=	Мне Бы В Космос
TTITLE7=Дождик
TTITLE8=Звезда На Песке
TTITLE9=Последняя Песня
TTITLE10=Wie Geht Es Dir?
TTITLE11=Irgendwo...
TTITLE12=	Sonne
TTITLE13=Дождик (Караоке)
EXTD=
EXTT0=
EXTT1=
EXTT2=
EXTT3=
EXTT4=
EXTT5=
EXTT6=
EXTT7=
EXTT8=
EXTT9=
EXTT10=
EXTT11=
EXTT12=
EXTT13=
PLAYORDER=
